<svg width="14" height="18" viewBox="0 0 14 18" fill="none" xmlns="http://www.w3.org/2000/svg">
<g clip-path="url(#clip0)">
<path d="M8.18461 0H2.16371C1.59925 0 1.12364 0.192708 0.736878 0.578125C0.350118 0.963542 0.156738 1.4375 0.156738 2V14C0.156738 14.5625 0.350118 15.0365 0.736878 15.4219C1.12364 15.8073 1.59925 16 2.16371 16H8.18461C8.76998 16 9.25081 15.8073 9.62712 15.4219C10.0034 15.0365 10.1916 14.5625 10.1916 14V2C10.1916 1.4375 10.0034 0.963542 9.62712 0.578125C9.25081 0.192708 8.76998 0 8.18461 0ZM8.87451 14C8.87451 14.4375 8.64454 14.6562 8.18461 14.6562H2.16371C1.72468 14.6562 1.50517 14.4375 1.50517 14V6.65625H8.87451V14ZM8.87451 6H1.50517V2C1.50517 1.5625 1.72468 1.34375 2.16371 1.34375H8.18461C8.64454 1.34375 8.87451 1.5625 8.87451 2V6ZM8.18461 8C8.18461 8.1875 8.12189 8.34375 7.99646 8.46875C7.87102 8.59375 7.71423 8.65625 7.52608 8.65625C7.33792 8.65625 7.18113 8.59375 7.05569 8.46875C6.93026 8.34375 6.86754 8.1875 6.86754 8C6.86754 7.8125 6.93026 7.65625 7.05569 7.53125C7.18113 7.40625 7.33792 7.34375 7.52608 7.34375C7.71423 7.34375 7.87102 7.40625 7.99646 7.53125C8.12189 7.65625 8.18461 7.8125 8.18461 8ZM2.16371 2.65625H8.18461V4H2.16371V2.65625ZM7.52608 5C7.52608 5.22917 7.41109 5.34375 7.18113 5.34375C6.97207 5.34375 6.86754 5.22917 6.86754 5C6.86754 4.77083 6.97207 4.65625 7.18113 4.65625C7.41109 4.65625 7.52608 4.77083 7.52608 5ZM2.8536 13.3438H4.86057V14H2.8536V13.3438ZM5.51911 13.3438H7.52608V14H5.51911V13.3438Z" fill="#AAAAAA"/>
</g>
<path d="M7.16438 10.3474C7.02563 10.4933 12.5 10.9054 12.5 11C12.5 11.0946 5.70837 11.1325 5.84671 11.2784C7.5 11 7.1925 9.53004 7.5 9.66671C8.48246 8.66572 8.00921 10.7909 9.00004 10.7909C9.99129 10.7909 11 10.8879 11.4825 11.7146C11.79 11.578 12.013 10.7025 12.1534 10.555C12.2921 10.4092 12.3334 11.0113 12.3334 10.9167C12.3334 10.8221 12.2917 10.7009 12.1534 10.555C12.013 10.4075 11.8529 11.8513 11.5454 11.7146C10.9313 11.4421 9.99087 11.1228 9.00004 11.1228C8.00879 11.1228 8.11417 9.84587 7.5 10.1188C7.1925 10.2555 7.3048 10.1999 7.16438 10.3474ZM12.3334 12.2C12.1771 12.3025 12.0042 12.3942 11.8209 12.4759C11.0775 12.8063 10.08 11.4021 9.00004 11.4021C7.92004 11.4021 7.26087 13.3305 6.51754 13C6.33958 12.922 6.34236 13.9035 6.17921 13.798L5.66671 13C5.66671 13.0946 7.67083 11.0384 7 12.2C7.14042 12.3475 6.6925 12.3392 7 12.4759C7.61417 12.7488 8.00921 11.4021 9.00004 11.4021C9.99129 11.4021 10.8684 12.473 11.4825 12.2C11.79 12.0634 12.013 13.5092 12.1534 13.3617C12.2921 13.2159 12.3334 13.0946 12.3334 13V12.2ZM12.3334 14.2834C12.1771 14.3859 12.0042 14.4775 11.8209 14.5592C11.0775 14.8896 10.08 15.0834 9.00004 15.0834C7.92004 15.0834 6.92254 14.8896 6.17921 14.5592C6.00125 14.4812 5.82986 14.3889 5.66671 14.2834L6.17921 14C7.5125 13.2 7.36167 14.1375 7.5 14.2834C7.64042 14.4309 7.6925 14.4225 8 14.5592C8.61417 14.8321 9.00917 14.5 10 14.5C10.9913 14.5 10.8684 16.1542 11.4825 15.8813C11.79 15.7446 12.013 15.5925 12.1534 15.445C12.2921 15.2992 12.3334 15.178 12.3334 15.0834V14.2834ZM13.1667 15.0834C13.1667 15.4492 12.9984 15.7663 12.7571 16.0192C12.5184 16.2705 12.1921 16.4775 11.8209 16.6425C11.0775 16.973 10.08 17.1667 9.00004 17.1667C7.92004 17.1667 6.92254 16.973 6.17921 16.6425C5.80837 16.4775 5.48171 16.2705 5.24296 16.0192C5.00171 15.7667 4.83337 15.4492 4.83337 15.0834V10.9167C4.83337 10.5509 5.00171 10.2342 5.24296 9.98087C5.48171 9.72962 5.80796 9.52254 6.17921 9.35754C6.92254 9.02712 7.92004 8.83337 9.00004 8.83337C10.08 8.83337 11.0775 9.02712 11.8209 9.35754C12.1917 9.52254 12.5184 9.72962 12.7571 9.98087C12.9984 10.2342 13.1667 10.5509 13.1667 10.9167V15.0834Z" fill="#2B2B2B"/>
<rect x="6" y="10" width="5" height="6" fill="#2B2B2B"/>
<path d="M8.99996 9.25C7.15829 9.25 5.66663 9.99583 5.66663 10.9167C5.66663 11.8375 7.15829 12.5833 8.99996 12.5833C10.8416 12.5833 12.3333 11.8375 12.3333 10.9167C12.3333 9.99583 10.8416 9.25 8.99996 9.25ZM5.66663 11.75V13C5.66663 13.9208 7.15829 14.6667 8.99996 14.6667C10.8416 14.6667 12.3333 13.9208 12.3333 13V11.75C12.3333 12.6708 10.8416 13.4167 8.99996 13.4167C7.15829 13.4167 5.66663 12.6708 5.66663 11.75ZM5.66663 13.8333V15.0833C5.66663 16.0042 7.15829 16.75 8.99996 16.75C10.8416 16.75 12.3333 16.0042 12.3333 15.0833V13.8333C12.3333 14.7542 10.8416 15.5 8.99996 15.5C7.15829 15.5 5.66663 14.7542 5.66663 13.8333Z" fill="#AAAAAA"/>
<defs>
<clipPath id="clip0">
<rect width="10.2857" height="16" fill="white"/>
</clipPath>
</defs>
</svg>
