<svg width="22" height="22" viewBox="0 0 22 22" fill="none" xmlns="http://www.w3.org/2000/svg">
<g opacity="0.6">
<path d="M11 2.75C15.0516 2.75 18.3333 4.39083 18.3333 6.41667C18.3333 8.4425 15.0516 10.0833 11 10.0833C6.94829 10.0833 3.66663 8.4425 3.66663 6.41667C3.66663 4.39083 6.94829 2.75 11 2.75ZM3.66663 8.25C3.66663 10.2758 6.94829 11.9167 11 11.9167C15.0516 11.9167 18.3333 10.2758 18.3333 8.25V11.0733L17.4166 11C15.0425 11 13.0166 12.5033 12.2466 14.6117L11 14.6667C6.94829 14.6667 3.66663 13.0258 3.66663 11V8.25ZM3.66663 12.8333C3.66663 14.8592 6.94829 16.5 11 16.5H11.9166C11.9166 17.4625 12.1641 18.37 12.6041 19.1583L11 19.25C6.94829 19.25 3.66663 17.6092 3.66663 15.5833V12.8333ZM16.5 19.3233L13.9791 16.5733L15.0425 15.51L16.5 16.9583L19.7908 13.6767L20.8541 14.9692L16.5 19.3233Z" fill="white"/>
</g>
</svg>
