<svg width="22" height="18" viewBox="0 0 22 18" fill="none" xmlns="http://www.w3.org/2000/svg">
<path opacity="0.6" d="M0.165 15.551C0.351 15.831 0.664 16 1 16H16C16.4 16 16.762 15.762 16.919 15.394L19.919 8.394C19.9847 8.24194 20.0116 8.0759 19.9971 7.91087C19.9827 7.74584 19.9273 7.587 19.8362 7.44869C19.745 7.31038 19.6208 7.19694 19.4748 7.11861C19.3288 7.04028 19.1657 6.99951 19 7H18V4C18 2.897 17.103 2 16 2H9.345L6.789 0H2C0.897 0 0 0.897 0 2V15H0.00699997C0.00477108 15.1951 0.0596945 15.3867 0.165 15.551ZM16 4V7H4C3.6 7 3.238 7.238 3.081 7.606L2 10.129V4H16Z" fill="white"/>
<path d="M15.1644 10.3474C15.0256 10.4933 20.5 10.9054 20.5 11C20.5 11.0946 13.7084 11.1325 13.8467 11.2784C15.5 11 15.1925 9.53004 15.5 9.66671C16.4825 8.66572 16.0092 10.7909 17 10.7909C17.9913 10.7909 19 10.8879 19.4825 11.7146C19.79 11.578 20.013 10.7025 20.1534 10.555C20.2921 10.4092 20.3334 11.0113 20.3334 10.9167C20.3334 10.8221 20.2917 10.7009 20.1534 10.555C20.013 10.4075 19.8529 11.8513 19.5454 11.7146C18.9313 11.4421 17.9909 11.1228 17 11.1228C16.0088 11.1228 16.1142 9.84587 15.5 10.1188C15.1925 10.2555 15.3048 10.1999 15.1644 10.3474ZM20.3334 12.2C20.1771 12.3025 20.0042 12.3942 19.8209 12.4759C19.0775 12.8063 18.08 11.4021 17 11.4021C15.92 11.4021 15.2609 13.3305 14.5175 13C14.3396 12.922 14.3424 13.9035 14.1792 13.798L13.6667 13C13.6667 13.0946 15.6708 11.0384 15 12.2C15.1404 12.3475 14.6925 12.3392 15 12.4759C15.6142 12.7488 16.0092 11.4021 17 11.4021C17.9913 11.4021 18.8684 12.473 19.4825 12.2C19.79 12.0634 20.013 13.5092 20.1534 13.3617C20.2921 13.2159 20.3334 13.0946 20.3334 13V12.2ZM20.3334 14.2834C20.1771 14.3859 20.0042 14.4775 19.8209 14.5592C19.0775 14.8896 18.08 15.0834 17 15.0834C15.92 15.0834 14.9225 14.8896 14.1792 14.5592C14.0012 14.4812 13.8299 14.3889 13.6667 14.2834L14.1792 14C15.5125 13.2 15.3617 14.1375 15.5 14.2834C15.6404 14.4309 15.6925 14.4225 16 14.5592C16.6142 14.8321 17.0092 14.5 18 14.5C18.9913 14.5 18.8684 16.1542 19.4825 15.8813C19.79 15.7446 20.013 15.5925 20.1534 15.445C20.2921 15.2992 20.3334 15.178 20.3334 15.0834V14.2834ZM21.1667 15.0834C21.1667 15.4492 20.9984 15.7663 20.7571 16.0192C20.5184 16.2705 20.1921 16.4775 19.8209 16.6425C19.0775 16.973 18.08 17.1667 17 17.1667C15.92 17.1667 14.9225 16.973 14.1792 16.6425C13.8084 16.4775 13.4817 16.2705 13.243 16.0192C13.0017 15.7667 12.8334 15.4492 12.8334 15.0834V10.9167C12.8334 10.5509 13.0017 10.2342 13.243 9.98087C13.4817 9.72962 13.808 9.52254 14.1792 9.35754C14.9225 9.02712 15.92 8.83337 17 8.83337C18.08 8.83337 19.0775 9.02712 19.8209 9.35754C20.1917 9.52254 20.5184 9.72962 20.7571 9.98087C20.9984 10.2342 21.1667 10.5509 21.1667 10.9167V15.0834Z" fill="#2B2B2B"/>
<path d="M17 9.25C15.1583 9.25 13.6666 9.99583 13.6666 10.9167C13.6666 11.8375 15.1583 12.5833 17 12.5833C18.8416 12.5833 20.3333 11.8375 20.3333 10.9167C20.3333 9.99583 18.8416 9.25 17 9.25ZM13.6666 11.75V13C13.6666 13.9208 15.1583 14.6667 17 14.6667C18.8416 14.6667 20.3333 13.9208 20.3333 13V11.75C20.3333 12.6708 18.8416 13.4167 17 13.4167C15.1583 13.4167 13.6666 12.6708 13.6666 11.75ZM13.6666 13.8333V15.0833C13.6666 16.0042 15.1583 16.75 17 16.75C18.8416 16.75 20.3333 16.0042 20.3333 15.0833V13.8333C20.3333 14.7542 18.8416 15.5 17 15.5C15.1583 15.5 13.6666 14.7542 13.6666 13.8333Z" fill="#AAAAAA"/>
</svg>
