<svg width="14" height="16" viewBox="0 0 14 16" fill="none" xmlns="http://www.w3.org/2000/svg">
<g opacity="0.6">
<path d="M12.9996 16H1.01526C0.734009 16 0.49703 15.9036 0.304321 15.7109C0.111613 15.5182 0.0152588 15.2812 0.0152588 15V1.01562C0.0152588 0.744792 0.114217 0.510417 0.312134 0.3125C0.51005 0.114583 0.744425 0.015625 1.01526 0.015625H8.01526V5.51562C8.01526 5.65104 8.06213 5.76823 8.15588 5.86719C8.24963 5.96615 8.36943 6.01562 8.51526 6.01562H13.9996V14.9844C13.9996 15.2656 13.9033 15.5026 13.7106 15.6953C13.5179 15.888 13.2809 15.9844 12.9996 15.9844V16ZM9.01526 10H7.01526V8C7.01526 7.72917 6.9163 7.4974 6.71838 7.30469C6.52047 7.11198 6.28349 7.01562 6.00745 7.01562C5.7314 7.01562 5.49703 7.11198 5.30432 7.30469C5.11161 7.4974 5.01526 7.72917 5.01526 8V10H3.01526C2.73401 10 2.49703 10.099 2.30432 10.2969C2.11161 10.4948 2.01526 10.7292 2.01526 11C2.01526 11.2708 2.11161 11.5026 2.30432 11.6953C2.49703 11.888 2.73401 11.9844 3.01526 11.9844H5.01526V13.9844C5.01526 14.2656 5.11161 14.5026 5.30432 14.6953C5.49703 14.888 5.7314 14.9844 6.00745 14.9844C6.28349 14.9844 6.52047 14.888 6.71838 14.6953C6.9163 14.5026 7.01526 14.2656 7.01526 13.9844V11.9844H9.01526C9.28609 11.9844 9.52047 11.888 9.71838 11.6953C9.9163 11.5026 10.0153 11.2708 10.0153 11C10.0153 10.7292 9.9163 10.4948 9.71838 10.2969C9.52047 10.099 9.28609 10 9.01526 10ZM9.01526 0C9.23401 0 9.46318 0.0989583 9.70276 0.296875L13.7028 4.3125C13.9007 4.51042 13.9996 4.75 13.9996 5.03125H9.01526V0Z" fill="white"/>
</g>
</svg>
