<svg width="18" height="18" viewBox="0 0 18 18" fill="none" xmlns="http://www.w3.org/2000/svg">
<g opacity="0.6">
<path d="M3.63798 7.875C4.2098 7.87544 4.76475 7.68128 5.21158 7.32445L6.67056 7.91824L6.91033 7.47422C6.95347 7.39476 7.00434 7.31975 7.0622 7.25027L7.56212 6.74332L6.11474 5.86652C6.22277 5.35473 6.16959 4.82203 5.96252 4.34169C5.75544 3.86135 5.40465 3.45695 4.95836 3.18411C4.51208 2.91128 3.99223 2.7834 3.47031 2.81807C2.94838 2.85273 2.45001 3.04824 2.04373 3.3777C1.63746 3.70717 1.34322 4.1544 1.2015 4.65791C1.05977 5.16142 1.07751 5.69647 1.25228 6.18949C1.42705 6.6825 1.75026 7.10927 2.17747 7.41109C2.60468 7.71292 3.11491 7.87499 3.63798 7.875V7.875ZM3.63798 3.9375C3.91611 3.9375 4.188 4.01998 4.41925 4.1745C4.65051 4.32902 4.83075 4.54864 4.93719 4.8056C5.04362 5.06256 5.07147 5.34531 5.01721 5.6181C4.96295 5.89088 4.82902 6.14145 4.63235 6.33812C4.43568 6.53479 4.18511 6.66872 3.91233 6.72298C3.63954 6.77724 3.35679 6.74939 3.09983 6.64296C2.84287 6.53652 2.62325 6.35628 2.46873 6.12502C2.31421 5.89377 2.23173 5.62188 2.23173 5.34375C2.23173 4.97079 2.37989 4.61311 2.64361 4.34938C2.90734 4.08566 3.26502 3.9375 3.63798 3.9375V3.9375Z" fill="white"/>
<path d="M16.875 5.94135L16.6809 5.49909C16.5234 5.13276 16.1627 4.93659 15.5285 4.87155C15.1727 4.83639 14.581 4.82796 13.7816 5.00549C13.0785 5.16194 9.48761 5.9969 7.98257 7.06635C7.27065 7.57225 7.13671 8.25006 7.03124 8.79463C6.93351 9.29174 6.85546 9.68444 6.39843 10.0251C5.87108 10.4167 5.43972 10.601 5.21788 10.679C4.74885 10.3066 4.16261 10.1133 3.56408 10.1336C2.96554 10.154 2.39378 10.3866 1.95108 10.7899C1.50839 11.1933 1.22367 11.741 1.14786 12.335C1.07205 12.9291 1.2101 13.5308 1.53732 14.0323C1.86454 14.5339 2.35956 14.9027 2.93381 15.0727C3.50805 15.2427 4.12405 15.2028 4.67157 14.9601C5.21909 14.7175 5.66239 14.2879 5.92217 13.7483C6.18194 13.2087 6.24122 12.5943 6.0894 12.0149L16.875 5.94135ZM8.98171 8.99995C8.87046 8.99995 8.7617 8.96696 8.6692 8.90515C8.5767 8.84334 8.5046 8.75549 8.46203 8.65271C8.41945 8.54992 8.40831 8.43682 8.43002 8.32771C8.45172 8.21859 8.50529 8.11837 8.58396 8.0397C8.66263 7.96103 8.76286 7.90746 8.87197 7.88576C8.98108 7.86405 9.09418 7.87519 9.19697 7.91777C9.29975 7.96034 9.3876 8.03244 9.44941 8.12494C9.51122 8.21744 9.54421 8.3262 9.54421 8.43745C9.54421 8.58663 9.48495 8.72971 9.37946 8.83519C9.27397 8.94068 9.13089 8.99995 8.98171 8.99995V8.99995ZM3.63796 14.0624C3.35983 14.0624 3.08794 13.98 2.85669 13.8255C2.62543 13.6709 2.44519 13.4513 2.33875 13.1943C2.23232 12.9374 2.20447 12.6546 2.25873 12.3819C2.31299 12.1091 2.44692 11.8585 2.64359 11.6618C2.84026 11.4652 3.09083 11.3312 3.36361 11.277C3.6364 11.2227 3.91915 11.2506 4.17611 11.357C4.43307 11.4634 4.65269 11.6437 4.80721 11.8749C4.96173 12.1062 5.04421 12.3781 5.04421 12.6562C5.04421 13.0292 4.89605 13.3868 4.63233 13.6506C4.3686 13.9143 4.01092 14.0624 3.63796 14.0624Z" fill="white"/>
<path d="M12.0863 9.13611L9.14233 10.8299L10.1137 11.2898L10.241 11.351C10.8984 11.6691 12.6471 12.5157 14.4326 12.6211C14.5694 12.6292 14.6953 12.6331 14.8116 12.6331C15.539 12.632 15.9257 12.4454 16.163 12.3047L16.875 11.8126L12.0863 9.13611Z" fill="white"/>
</g>
</svg>
