<svg width="18" height="18" viewBox="0 0 18 18" fill="none" xmlns="http://www.w3.org/2000/svg">
<g opacity="0.6">
<path d="M5.93068 4.38262H5.9287C5.91844 3.96376 5.57392 3.63868 5.1547 3.63292V3.63184H2.3305V3.63382C1.91524 3.64408 1.59844 3.96718 1.58908 4.3828H1.58728V13.5988H1.58872C1.59646 14.0128 1.91956 14.3348 2.3305 14.3508V14.3683H5.1547C5.58688 14.3681 5.93068 14.0308 5.93068 13.599V4.38262V4.38262ZM3.7588 13.4705C3.61026 13.4723 3.46282 13.4447 3.32505 13.3891C3.18727 13.3336 3.0619 13.2512 2.9562 13.1468C2.8505 13.0424 2.76658 12.9181 2.70931 12.781C2.65203 12.644 2.62255 12.4969 2.62256 12.3483C2.62257 12.1998 2.65208 12.0527 2.70937 11.9156C2.76667 11.7786 2.85061 11.6543 2.95632 11.5499C3.06204 11.4455 3.18743 11.3632 3.32521 11.3077C3.463 11.2521 3.61044 11.2245 3.75898 11.2264C4.0541 11.2302 4.33585 11.35 4.54321 11.5601C4.75056 11.7701 4.86682 12.0534 4.8668 12.3485C4.86677 12.6437 4.75047 12.9269 4.54308 13.1369C4.33569 13.3469 4.05392 13.4667 3.7588 13.4705ZM5.03284 9.43666H2.48494V4.5295H5.03284V9.43666Z" fill="white"/>
<path d="M11.1716 4.38262H11.1697C11.1594 3.96376 10.8149 3.63868 10.3957 3.63292V3.63184H7.57147V3.63382C7.15621 3.64408 6.83941 3.96718 6.83005 4.3828H6.82825V13.5988H6.82969C6.83743 14.0128 7.16053 14.3348 7.57147 14.3508V14.3683H10.3957C10.8278 14.3681 11.1716 14.0308 11.1716 13.599V4.38262V4.38262ZM8.99977 13.4705C8.85122 13.4723 8.70379 13.4447 8.56601 13.3891C8.42824 13.3336 8.30286 13.2512 8.19716 13.1468C8.09146 13.0424 8.00754 12.9181 7.95027 12.781C7.893 12.644 7.86351 12.4969 7.86353 12.3483C7.86354 12.1998 7.89305 12.0527 7.95034 11.9156C8.00764 11.7786 8.09158 11.6543 8.19729 11.5499C8.30301 11.4455 8.42839 11.3632 8.56618 11.3077C8.70396 11.2521 8.8514 11.2245 8.99995 11.2264C9.29507 11.2301 9.57683 11.35 9.7842 11.56C9.99157 11.77 10.1079 12.0533 10.1079 12.3484C10.1079 12.6436 9.99157 12.9268 9.7842 13.1368C9.57683 13.3469 9.29507 13.4667 8.99995 13.4705H8.99977ZM10.2738 9.43666H7.72609V4.5295H10.274V9.43666H10.2738Z" fill="white"/>
<path d="M16.4127 4.38262H16.4108C16.4005 3.96376 16.056 3.63868 15.6368 3.63292V3.63184H12.8126V3.63382C12.3973 3.64408 12.0805 3.96718 12.0711 4.3828H12.0693V13.5988H12.0708C12.0785 14.0128 12.4016 14.3348 12.8126 14.3508V14.3683H15.6368C16.0689 14.3681 16.4127 14.0308 16.4127 13.599V4.38262V4.38262ZM14.241 13.4705C14.0925 13.4723 13.9451 13.4447 13.8073 13.3891C13.6695 13.3336 13.5441 13.2512 13.4384 13.1468C13.3327 13.0424 13.2488 12.9181 13.1915 12.781C13.1343 12.644 13.1048 12.4969 13.1048 12.3483C13.1048 12.1998 13.1343 12.0527 13.1916 11.9156C13.2489 11.7786 13.3328 11.6543 13.4386 11.5499C13.5443 11.4455 13.6697 11.3632 13.8074 11.3077C13.9452 11.2521 14.0927 11.2245 14.2412 11.2264C14.5363 11.2302 14.8181 11.35 15.0254 11.5601C15.2328 11.7701 15.3491 12.0534 15.349 12.3485C15.349 12.6437 15.2327 12.9269 15.0253 13.1369C14.8179 13.3469 14.5362 13.4667 14.241 13.4705ZM15.5151 9.43666H12.9672V4.5295H15.5151V9.43666Z" fill="white"/>
</g>
</svg>
