<svg width="16" height="16" viewBox="0 0 16 16" fill="none" xmlns="http://www.w3.org/2000/svg">
<g opacity="0.6">
<path d="M7 11C7 11.5523 7.44772 12 8 12C8.55228 12 9 11.5523 9 11C9 10.4477 8.55228 10 8 10C7.44772 10 7 10.4477 7 11Z" fill="white"/>
<path d="M8.49996 15L8.49996 13.955C9.19828 13.8365 9.8322 13.4749 10.2897 12.9341C10.7472 12.3934 10.9987 11.7083 11 11L10.9995 10.989C11.8049 10.3862 12.4094 9.55402 12.7337 8.60164C13.058 7.64926 13.0869 6.62112 12.8167 5.65201C12.5464 4.68291 11.9897 3.81809 11.2194 3.17095C10.449 2.5238 9.50115 2.12453 8.49996 2.0255L8.49996 1L7.49996 1L7.49996 2.025C6.49865 2.12393 5.55061 2.52316 4.78018 3.17034C4.00974 3.81752 3.45288 4.68243 3.18263 5.65164C2.91238 6.62086 2.94135 7.64912 3.26574 8.60158C3.59014 9.55404 4.19481 10.3862 5.00046 10.989L4.99996 11C5.00118 11.7083 5.25276 12.3934 5.71024 12.9341C6.16773 13.4749 6.80165 13.8365 7.49996 13.955L7.49996 15L8.49996 15ZM12 7C11.9993 7.53585 11.8906 8.06607 11.6805 8.559C11.4704 9.05193 11.1631 9.49746 10.777 9.869C10.5834 9.39674 10.2728 8.98151 9.87445 8.66241C9.4761 8.34331 9.00309 8.13084 8.49996 8.045L8.49996 3.035C9.46567 3.15742 10.3537 3.6275 10.9979 4.35728C11.6421 5.08707 11.9983 6.02656 12 7ZM3.99996 7C4.00159 6.02656 4.35783 5.08707 5.00203 4.35728C5.64623 3.6275 6.53425 3.15742 7.49996 3.035L7.49996 8.045C6.99678 8.13088 6.52374 8.34343 6.12538 8.66262C5.72703 8.98181 5.41647 9.39714 5.22296 9.8695C4.83678 9.4979 4.52944 9.05229 4.31931 8.55926C4.10919 8.06624 4.00057 7.53593 3.99996 7ZM5.99996 11C5.99996 10.6044 6.11726 10.2178 6.33702 9.88886C6.55679 9.55996 6.86914 9.30362 7.2346 9.15224C7.60005 9.00087 8.00218 8.96126 8.39014 9.03843C8.7781 9.1156 9.13447 9.30608 9.41418 9.58579C9.69388 9.86549 9.88436 10.2219 9.96153 10.6098C10.0387 10.9978 9.9991 11.3999 9.84772 11.7654C9.69635 12.1308 9.44 12.4432 9.1111 12.6629C8.7822 12.8827 8.39552 13 7.99996 13C7.46973 12.9993 6.96141 12.7884 6.58648 12.4135C6.21155 12.0386 6.00062 11.5302 5.99996 11Z" fill="white"/>
</g>
</svg>
