<svg width="16" height="16" viewBox="0 0 16 16" fill="none" xmlns="http://www.w3.org/2000/svg">
<g opacity="0.6">
<path d="M8.00004 1.33337C4.32404 1.33337 1.33337 4.32404 1.33337 8.00004C1.33337 11.676 4.32404 14.6667 8.00004 14.6667C11.676 14.6667 14.6667 11.676 14.6667 8.00004C14.6667 4.32404 11.676 1.33337 8.00004 1.33337ZM8.66671 12H7.33337V10.6667H8.66671V12ZM9.31737 8.74337C9.18671 8.84871 9.06071 8.94937 8.96071 9.04937C8.68871 9.32071 8.66737 9.56737 8.66671 9.57804V9.66671H7.33337V9.55537C7.33337 9.47671 7.35271 8.77071 8.01737 8.10604C8.14737 7.97604 8.30871 7.84404 8.47804 7.70671C8.96737 7.31004 9.28871 7.02071 9.28871 6.62204C9.28096 6.28525 9.14171 5.96487 8.90075 5.72945C8.65979 5.49403 8.33626 5.36227 7.99938 5.36236C7.66251 5.36244 7.33904 5.49437 7.0982 5.72992C6.85737 5.96547 6.71828 6.28592 6.71071 6.62271H5.37737C5.37737 5.17671 6.55404 4.00004 8.00004 4.00004C9.44604 4.00004 10.6227 5.17671 10.6227 6.62271C10.6227 7.68737 9.83671 8.32271 9.31737 8.74337V8.74337Z" fill="white"/>
</g>
</svg>
