<svg width="16" height="16" viewBox="0 0 16 16" fill="none" xmlns="http://www.w3.org/2000/svg">
<g opacity="0.6">
<path d="M15.0425 0.537891C15.0425 0.240734 14.8013 0 14.5046 0H3.71538C3.41868 0 3.17749 0.240734 3.17749 0.537891V5.12569H4.25327V1.07578H13.9667V12.4528H12.0322C11.7353 12.4528 11.4944 12.6934 11.4944 12.9907V14.9243H4.25327V10.9079H3.17749V15.4621C3.17749 15.7593 3.41868 16 3.71538 16H12.0322C12.1808 16 12.3153 15.9395 12.4124 15.8423L12.4129 15.8418L14.8844 13.3714L14.8849 13.3709C14.9822 13.2737 15.0425 13.1393 15.0425 12.9907V0.537891H15.0425Z" fill="white"/>
<path d="M5.59654 10.5891C5.59654 10.7792 5.71101 10.951 5.88697 11.0235C5.9453 11.0476 6.00632 11.0593 6.06714 11.0593C6.19001 11.0593 6.3104 11.0116 6.40011 10.9216L8.97187 8.34933C9.06012 8.26107 9.11008 8.14143 9.11008 8.01684C9.11008 7.8918 9.06012 7.77216 8.97187 7.6839L6.40011 5.11214C6.30988 5.02172 6.18953 4.974 6.06714 4.974C6.00629 4.974 5.94527 4.98561 5.88697 5.00962C5.71101 5.08274 5.59654 5.25453 5.59654 5.4446V6.20151H1.42794C1.16841 6.20151 0.957275 6.41206 0.957275 6.67214V9.36157C0.957275 9.62158 1.16837 9.83226 1.42794 9.83226H5.59654V10.5891Z" fill="white"/>
</g>
</svg>
