<svg width="16" height="16" viewBox="0 0 16 16" fill="none" xmlns="http://www.w3.org/2000/svg">
<g opacity="0.6">
<path d="M14.6667 12V14.6667H12V12.6667H10V10.6667H8.00004L6.49337 9.16004C6.12671 9.27337 5.74004 9.33337 5.33337 9.33337C4.27251 9.33337 3.25509 8.91195 2.50495 8.1618C1.7548 7.41166 1.33337 6.39424 1.33337 5.33337C1.33337 4.27251 1.7548 3.25509 2.50495 2.50495C3.25509 1.7548 4.27251 1.33337 5.33337 1.33337C6.39424 1.33337 7.41166 1.7548 8.1618 2.50495C8.91195 3.25509 9.33337 4.27251 9.33337 5.33337C9.33337 5.74004 9.27337 6.12671 9.16004 6.49337L14.6667 12ZM4.66671 3.33337C4.31309 3.33337 3.97395 3.47385 3.7239 3.7239C3.47385 3.97395 3.33337 4.31309 3.33337 4.66671C3.33337 5.02033 3.47385 5.35947 3.7239 5.60952C3.97395 5.85956 4.31309 6.00004 4.66671 6.00004C5.02033 6.00004 5.35947 5.85956 5.60952 5.60952C5.85956 5.35947 6.00004 5.02033 6.00004 4.66671C6.00004 4.31309 5.85956 3.97395 5.60952 3.7239C5.35947 3.47385 5.02033 3.33337 4.66671 3.33337V3.33337Z" fill="white"/>
</g>
</svg>
