<svg width="12" height="12" viewBox="0 0 12 12" fill="none" xmlns="http://www.w3.org/2000/svg">
<path opacity="0.8" d="M6.41663 9.33333L6.41663 7.47833C7.09329 7.23333 7.58329 6.59167 7.58329 5.83333C7.58329 5.075 7.09329 4.43333 6.41663 4.18833L6.41663 2.33333C6.41663 2.14083 6.47496 1.16667 7.58329 1.16667L8.16663 1.16667C9.23413 1.16667 9.33329 2.065 9.33329 2.33333L9.33329 8.27167C8.65663 8.51667 8.16663 9.15833 8.16663 9.91667C8.16663 10.3808 8.351 10.8259 8.67919 11.1541C9.00738 11.4823 9.4525 11.6667 9.91663 11.6667C10.3808 11.6667 10.8259 11.4823 11.1541 11.1541C11.4823 10.8259 11.6666 10.3808 11.6666 9.91667C11.6666 9.15833 11.1766 8.51667 10.5 8.27167L10.5 2.33333C10.5 1.39417 9.88163 -7.80248e-08 8.16663 -1.5299e-07L7.58329 -1.78488e-07C5.86829 -2.53453e-07 5.24996 1.39417 5.24996 2.33333L5.24996 4.18833C4.57329 4.43333 4.08329 5.075 4.08329 5.83333C4.08329 6.59167 4.57329 7.23333 5.24996 7.47833L5.24996 9.33333C5.24996 9.52583 5.19163 10.5 4.08329 10.5L3.49996 10.5C2.43246 10.5 2.33329 9.60167 2.33329 9.33333L2.33329 3.395C3.00996 3.15 3.49996 2.50833 3.49996 1.75C3.49996 1.28587 3.31558 0.840752 2.9874 0.512563C2.65921 0.184374 2.21409 -4.13184e-07 1.74996 -4.33471e-07C1.28583 -4.53759e-07 0.84071 0.184374 0.512521 0.512563C0.184333 0.840751 -4.1541e-05 1.28587 -4.15613e-05 1.75C-4.15945e-05 2.50833 0.489958 3.15 1.16663 3.395L1.16662 9.33333C1.16662 10.2725 1.79079 11.6667 3.49996 11.6667L4.08329 11.6667C5.79246 11.6667 6.41663 10.2725 6.41663 9.33333ZM10.5 9.91667C10.5 10.0714 10.4385 10.2198 10.3291 10.3291C10.2197 10.4385 10.0713 10.5 9.91663 10.5C9.76192 10.5 9.61354 10.4385 9.50415 10.3291C9.39475 10.2198 9.33329 10.0714 9.33329 9.91667C9.33329 9.76196 9.39475 9.61358 9.50415 9.50419C9.61354 9.39479 9.76192 9.33333 9.91663 9.33333C10.0713 9.33333 10.2197 9.39479 10.3291 9.50419C10.4385 9.61358 10.5 9.76196 10.5 9.91667V9.91667ZM1.16663 1.75C1.16663 1.59529 1.22808 1.44692 1.33748 1.33752C1.44688 1.22812 1.59525 1.16667 1.74996 1.16667C1.90467 1.16667 2.05304 1.22812 2.16244 1.33752C2.27183 1.44692 2.33329 1.59529 2.33329 1.75C2.33329 1.90471 2.27183 2.05308 2.16244 2.16248C2.05304 2.27187 1.90467 2.33333 1.74996 2.33333C1.59525 2.33333 1.44688 2.27187 1.33748 2.16248C1.22808 2.05308 1.16663 1.90471 1.16663 1.75Z" fill="white"/>
</svg>
