<svg width="16" height="16" viewBox="0 0 16 16" fill="none" xmlns="http://www.w3.org/2000/svg">
<g opacity="0.6">
<path d="M6.00004 7.33333C6.52746 7.33333 7.04303 7.17694 7.48156 6.88392C7.92009 6.5909 8.26189 6.17443 8.46372 5.68716C8.66555 5.19989 8.71836 4.66371 8.61547 4.14643C8.51257 3.62914 8.2586 3.15399 7.88566 2.78105C7.51272 2.40811 7.03756 2.15413 6.52028 2.05124C6.003 1.94835 5.46682 2.00116 4.97955 2.20299C4.49228 2.40482 4.07581 2.74662 3.78279 3.18515C3.48977 3.62368 3.33337 4.13925 3.33337 4.66667C3.33337 5.37391 3.61433 6.05219 4.11442 6.55229C4.61452 7.05238 5.2928 7.33333 6.00004 7.33333ZM11.3334 8.66667C11.7289 8.66667 12.1156 8.54937 12.4445 8.32961C12.7734 8.10984 13.0298 7.79749 13.1811 7.43203C13.3325 7.06658 13.3721 6.66445 13.2949 6.27649C13.2178 5.88853 13.0273 5.53216 12.7476 5.25245C12.4679 4.97275 12.1115 4.78227 11.7236 4.7051C11.3356 4.62793 10.9335 4.66753 10.568 4.81891C10.2026 4.97028 9.8902 5.22663 9.67044 5.55553C9.45067 5.88443 9.33337 6.27111 9.33337 6.66667C9.33337 7.1971 9.54409 7.70581 9.91916 8.08088C10.2942 8.45595 10.8029 8.66667 11.3334 8.66667ZM14 13.3333C14.1769 13.3333 14.3464 13.2631 14.4714 13.1381C14.5965 13.013 14.6667 12.8435 14.6667 12.6667C14.6662 12.0436 14.491 11.4332 14.1611 10.9046C13.8312 10.376 13.3598 9.95051 12.8003 9.67631C12.2408 9.40212 11.6156 9.29023 10.9958 9.35333C10.3759 9.41644 9.78613 9.65202 9.29337 10.0333C8.64038 9.3829 7.80941 8.9404 6.90526 8.76162C6.0011 8.58284 5.06425 8.67579 4.21286 9.02876C3.36146 9.38172 2.63365 9.97889 2.1212 10.745C1.60875 11.511 1.33462 12.4117 1.33337 13.3333C1.33337 13.5101 1.40361 13.6797 1.52864 13.8047C1.65366 13.9298 1.82323 14 2.00004 14H10C10.1769 14 10.3464 13.9298 10.4714 13.8047C10.5965 13.6797 10.6667 13.5101 10.6667 13.3333" fill="white"/>
</g>
</svg>
