<svg width="16" height="16" viewBox="0 0 16 16" fill="none" xmlns="http://www.w3.org/2000/svg">
<g opacity="0.6">
<path d="M1.2008 4.80005H14.8008C15.2568 4.80005 15.1824 4.31365 14.9552 4.23445C14.7272 4.15525 12.2008 3.20005 11.76 3.20005H11.2V0.800049H4.8V3.20005H4.2408C3.8008 3.20005 1.2736 4.15525 1.0464 4.23445C0.8192 4.31365 0.7448 4.80005 1.2008 4.80005V4.80005ZM15.2 5.60005H0.8C0.36 5.60005 0 5.96005 0 6.40005V10.4C0 10.8408 0.36 11.2 0.8 11.2H2.6264L1.9208 15.2H14.08L13.3736 11.2H15.2C15.6408 11.2 16 10.8408 16 10.4V6.40005C16 5.96005 15.6408 5.60005 15.2 5.60005ZM3.6824 13.6L4.6408 7.99765H11.36L12.3192 13.6H3.6824Z" fill="white"/>
</g>
</svg>
