<svg width="17" height="16" viewBox="0 0 17 16" fill="none" xmlns="http://www.w3.org/2000/svg">
<g opacity="0.6">
<path fill-rule="evenodd" clip-rule="evenodd" d="M9.97624 0.0393763C10.1196 -0.00982096 10.2748 -0.0129964 10.42 0.0302939C10.5653 0.0735842 10.6934 0.161177 10.7864 0.280829L15.8773 6.82624C15.9766 6.95391 16.0305 7.11104 16.0305 7.27279C16.0305 7.43453 15.9766 7.59166 15.8773 7.71933L10.7864 14.2647C10.6933 14.3843 10.5653 14.4717 10.4201 14.515C10.2749 14.5582 10.1198 14.555 9.97651 14.5058C9.83322 14.4566 9.70887 14.3639 9.62081 14.2407C9.53276 14.1174 9.48539 13.9697 9.48533 13.8182V10.9164C5.57335 10.9979 3.69409 11.7404 2.7501 12.5477C1.85265 13.3149 1.68829 14.2175 1.51738 15.1629L1.47302 15.4066C1.44038 15.5809 1.34516 15.7373 1.20528 15.8463C1.0654 15.9554 0.890488 16.0095 0.713463 15.9986C0.536437 15.9877 0.369497 15.9125 0.24405 15.7871C0.118603 15.6617 0.0432962 15.4948 0.0322981 15.3178C-0.0927921 13.3193 0.0948432 10.4233 1.50647 8.00078C2.87664 5.64952 5.34354 3.84153 9.48533 3.65244V0.727372C9.48529 0.575846 9.53257 0.42809 9.62059 0.304744C9.7086 0.181398 9.83294 0.0886224 9.97624 0.0393763V0.0393763Z" fill="white"/>
</g>
</svg>
