<svg width="15" height="15" viewBox="0 0 15 15" fill="none" xmlns="http://www.w3.org/2000/svg">
<g opacity="0.6">
<path fill-rule="evenodd" clip-rule="evenodd" d="M6.00046 0.667262C6.00059 0.528228 5.95724 0.392634 5.87649 0.279456C5.79573 0.166277 5.68162 0.0811779 5.5501 0.0360669C5.41859 -0.00904398 5.27626 -0.0119091 5.14304 0.0278727C5.00982 0.0676544 4.89237 0.148092 4.80713 0.257929L0.140463 6.25793C0.0494263 6.37496 0 6.51899 0 6.66726C0 6.81553 0.0494263 6.95957 0.140463 7.0766L4.80713 13.0766C4.89237 13.1864 5.00982 13.2669 5.14304 13.3067C5.27626 13.3464 5.41859 13.3436 5.5501 13.2985C5.68162 13.2533 5.79573 13.1682 5.87649 13.0551C5.95724 12.9419 6.00059 12.8063 6.00046 12.6673V10.0073C9.58646 10.0819 11.3091 10.7626 12.1745 11.5026C12.9971 12.2059 13.1478 13.0333 13.3045 13.8999L13.3451 14.1233C13.375 14.2831 13.4623 14.4264 13.5906 14.5264C13.7188 14.6263 13.8791 14.676 14.0414 14.666C14.2037 14.656 14.3567 14.5871 14.4717 14.4721C14.5867 14.3572 14.6557 14.2042 14.6658 14.0419C14.7798 12.2099 14.6085 9.55526 13.3145 7.3346C12.0585 5.17926 9.79646 3.52193 6.00046 3.3486V0.667262Z" fill="white"/>
</g>
</svg>
