<svg width="16" height="16" viewBox="0 0 16 16" fill="none" xmlns="http://www.w3.org/2000/svg">
<g opacity="0.6">
<path d="M13.8011 3.74487L13.1825 4.36343L12.5846 4.96135L11.8232 5.72279C11.6166 5.73654 11.4095 5.70598 11.2156 5.63315C11.0218 5.56031 10.8458 5.44689 10.6994 5.30049C10.553 5.15408 10.4396 4.97807 10.3668 4.78426C10.2939 4.59045 10.2634 4.3833 10.2771 4.17671L11.0385 3.41527L11.6365 2.81735L12.255 2.19879C12.2743 2.17945 12.2852 2.15324 12.2852 2.12591C12.2852 2.09859 12.2743 2.07238 12.255 2.05303C12.2477 2.04567 12.2389 2.04119 12.2302 2.03655L12.2304 2.03639L12.2288 2.03575C12.2236 2.033 12.2181 2.0307 12.2125 2.02887C11.7722 1.8313 11.2952 1.7289 10.8126 1.72839C8.90239 1.72839 7.35375 3.27703 7.35375 5.18727C7.35375 5.55207 7.41103 5.90327 7.51567 6.23335L3.90847 9.84071C2.70127 9.86023 1.72815 10.8434 1.72815 12.0554C1.72815 13.2794 2.72063 14.2719 3.94463 14.2719C5.15647 14.2719 6.13983 13.2986 6.15935 12.0914L9.76671 8.48407C10.1051 8.59146 10.458 8.64607 10.8129 8.64599C12.7232 8.64599 14.2718 7.09735 14.2718 5.18711C14.2718 4.68823 14.1621 4.21655 13.9715 3.78839C13.9695 3.78183 13.9668 3.77551 13.9635 3.76951L13.96 3.76119L13.9589 3.76231C13.955 3.75639 13.9523 3.74983 13.947 3.74455C13.9276 3.72529 13.9014 3.71451 13.874 3.71457C13.8467 3.71463 13.8204 3.72552 13.8011 3.74487V3.74487ZM4.86047 12.0554C4.86047 12.2984 4.76397 12.5313 4.5922 12.7031C4.42043 12.8749 4.18747 12.9714 3.94455 12.9714C3.70163 12.9714 3.46866 12.8749 3.2969 12.7031C3.12513 12.5313 3.02863 12.2984 3.02863 12.0554C3.02863 11.8125 3.12513 11.5795 3.2969 11.4078C3.46866 11.236 3.70163 11.1395 3.94455 11.1395C4.18747 11.1395 4.42043 11.236 4.5922 11.4078C4.76397 11.5795 4.86047 11.8125 4.86047 12.0554V12.0554Z" fill="white"/>
</g>
</svg>
