<svg width="12" height="13" viewBox="0 0 12 13" fill="none" xmlns="http://www.w3.org/2000/svg">
<g opacity="0.6">
<path d="M11.4607 5.332H7.52869V4.641L10.1077 0.921V0.867H7.59869V0H11.3837V0.691L8.81669 4.411V4.465H11.4617V5.332H11.4607Z" fill="white"/>
<path fill-rule="evenodd" clip-rule="evenodd" d="M8.58263 10.961L8.16463 12.332H7.09863L8.88763 7H10.1216L11.9026 12.332H10.7826L10.3636 10.961H8.58263ZM10.1526 10.176L9.50063 8.02H9.45363L8.80163 10.176H10.1526Z" fill="white"/>
<path d="M3.00063 0.832031C3.00063 0.699423 2.94795 0.572246 2.85418 0.478478C2.76042 0.38471 2.63324 0.332031 2.50063 0.332031C2.36802 0.332031 2.24085 0.38471 2.14708 0.478478C2.05331 0.572246 2.00063 0.699423 2.00063 0.832031V10.625L0.854632 9.47803C0.808144 9.43154 0.752954 9.39467 0.692215 9.36951C0.631476 9.34435 0.566375 9.3314 0.500632 9.3314C0.434888 9.3314 0.369788 9.34435 0.309048 9.36951C0.248309 9.39467 0.19312 9.43154 0.146632 9.47803C0.100144 9.52452 0.0632673 9.57971 0.0381082 9.64045C0.0129491 9.70119 0 9.76629 0 9.83203C0 9.89777 0.0129491 9.96288 0.0381082 10.0236C0.0632673 10.0844 0.100144 10.1395 0.146632 10.186L2.14663 12.185L2.15363 12.192C2.24751 12.2836 2.37375 12.3343 2.50487 12.3332C2.63598 12.3321 2.76134 12.2792 2.85363 12.186L4.85363 10.186C4.94752 10.0923 5.00032 9.96507 5.00041 9.83239C5.0005 9.6997 4.94789 9.57242 4.85413 9.47853C4.76038 9.38464 4.63317 9.33185 4.50049 9.33175C4.3678 9.33166 4.24052 9.38428 4.14663 9.47803L3.00063 10.625V0.832031Z" fill="white"/>
</g>
</svg>
