<svg width="18" height="18" viewBox="0 0 18 18" fill="none" xmlns="http://www.w3.org/2000/svg">
<g opacity="0.6">
<path d="M8.5 6.00005H7.075C6.34732 5.99002 5.63896 6.23427 5.07211 6.69067C4.50526 7.14707 4.11548 7.787 3.97 8.50005H1V9.50005H3.965C4.10793 10.2153 4.49771 10.8576 5.06621 11.3146C5.6347 11.7716 6.34574 12.0142 7.075 12.0001H8.5V6.00005Z" fill="white"/>
<path d="M14.115 8.49996C13.9692 7.78519 13.578 7.14395 13.009 6.68735C12.4401 6.23076 11.7294 5.98758 11 5.99996H9.5V12H11C11.7293 12.0141 12.4403 11.7715 13.0088 11.3145C13.5773 10.8575 13.9671 10.2152 14.11 9.49996H17V8.49996H14.115Z" fill="white"/>
</g>
</svg>
