<svg width="18" height="18" viewBox="0 0 18 18" fill="none" xmlns="http://www.w3.org/2000/svg">
<g opacity="0.6">
<path d="M13.5 10.5H15V12.75H17.25V14.25H15V16.5H13.5V14.25H11.25V12.75H13.5V10.5ZM9 2.25C12.315 2.25 15 3.5925 15 5.25C15 6.9075 12.315 8.25 9 8.25C5.685 8.25 3 6.9075 3 5.25C3 3.5925 5.685 2.25 9 2.25ZM3 6.75C3 8.4075 5.685 9.75 9 9.75C12.315 9.75 15 8.4075 15 6.75V9.06L14.25 9C12.3075 9 10.65 10.23 10.02 11.955L9 12C5.685 12 3 10.6575 3 9V6.75ZM3 10.5C3 12.1575 5.685 13.5 9 13.5H9.75C9.75 14.2875 9.9525 15.03 10.3125 15.675L9 15.75C5.685 15.75 3 14.4075 3 12.75V10.5Z" fill="white"/>
</g>
</svg>
