<svg width="18" height="18" viewBox="0 0 18 18" fill="none" xmlns="http://www.w3.org/2000/svg">
<g opacity="0.6">
<path d="M15 4.5H9L7.9425 3.4425C7.6575 3.1575 7.275 3 6.8775 3H3C2.1675 3 1.5075 3.6675 1.5075 4.5L1.5 13.5C1.5 14.3325 2.1675 15 3 15H15C15.825 15 16.5 14.325 16.5 13.5V6C16.5 5.175 15.825 4.5 15 4.5ZM13.5 10.5H12V12C12 12.4125 11.6625 12.75 11.25 12.75C10.8375 12.75 10.5 12.4125 10.5 12V10.5H9C8.5875 10.5 8.25 10.1625 8.25 9.75C8.25 9.3375 8.5875 9 9 9H10.5V7.5C10.5 7.0875 10.8375 6.75 11.25 6.75C11.6625 6.75 12 7.0875 12 7.5V9H13.5C13.9125 9 14.25 9.3375 14.25 9.75C14.25 10.1625 13.9125 10.5 13.5 10.5Z" fill="white"/>
</g>
</svg>
