<svg width="10" height="3" viewBox="0 0 10 3" fill="none" xmlns="http://www.w3.org/2000/svg">
<path opacity="0.8" d="M0.984375 1.33691C0.984375 1.11816 1.04818 0.935872 1.17578 0.790039C1.30794 0.644206 1.50391 0.571289 1.76367 0.571289C2.02344 0.571289 2.2194 0.644206 2.35156 0.790039C2.48828 0.935872 2.55664 1.11816 2.55664 1.33691C2.55664 1.54655 2.48828 1.72201 2.35156 1.86328C2.2194 2.00456 2.02344 2.0752 1.76367 2.0752C1.50391 2.0752 1.30794 2.00456 1.17578 1.86328C1.04818 1.72201 0.984375 1.54655 0.984375 1.33691ZM4.67578 1.33691C4.67578 1.11816 4.73958 0.935872 4.86719 0.790039C4.99935 0.644206 5.19531 0.571289 5.45508 0.571289C5.71484 0.571289 5.91081 0.644206 6.04297 0.790039C6.17969 0.935872 6.24805 1.11816 6.24805 1.33691C6.24805 1.54655 6.17969 1.72201 6.04297 1.86328C5.91081 2.00456 5.71484 2.0752 5.45508 2.0752C5.19531 2.0752 4.99935 2.00456 4.86719 1.86328C4.73958 1.72201 4.67578 1.54655 4.67578 1.33691ZM8.36719 1.33691C8.36719 1.11816 8.43099 0.935872 8.55859 0.790039C8.69076 0.644206 8.88672 0.571289 9.14648 0.571289C9.40625 0.571289 9.60221 0.644206 9.73438 0.790039C9.87109 0.935872 9.93945 1.11816 9.93945 1.33691C9.93945 1.54655 9.87109 1.72201 9.73438 1.86328C9.60221 2.00456 9.40625 2.0752 9.14648 2.0752C8.88672 2.0752 8.69076 2.00456 8.55859 1.86328C8.43099 1.72201 8.36719 1.54655 8.36719 1.33691Z" fill="white"/>
</svg>
