<svg width="10" height="8" viewBox="0 0 10 8" fill="none" xmlns="http://www.w3.org/2000/svg">
<path opacity="0.3" d="M5.41124 7.78417L9.91117 1.28428C9.96307 1.20927 9.99347 1.12148 9.99906 1.03044C10.0047 0.939393 9.98523 0.848551 9.9429 0.767751C9.90057 0.68695 9.83694 0.61927 9.7589 0.572038C9.68086 0.524806 9.59139 0.499821 9.50018 0.499791L0.500323 0.499791C0.409063 0.499731 0.319527 0.524648 0.241418 0.571844C0.163309 0.61904 0.0996073 0.686713 0.0572158 0.76753C0.0148243 0.848347 -0.00463983 0.939225 0.000932916 1.03031C0.00650567 1.1214 0.0369027 1.20923 0.0888297 1.28428L4.58876 7.78417C4.63497 7.85039 4.69649 7.90447 4.76809 7.94181C4.83969 7.97916 4.91925 7.99866 5 7.99866C5.08075 7.99866 5.16031 7.97916 5.23191 7.94181C5.30351 7.90447 5.36503 7.85039 5.41124 7.78417Z" fill="white"/>
</svg>
