<svg width="16" height="16" viewBox="0 0 16 16" fill="none" xmlns="http://www.w3.org/2000/svg">
<g opacity="0.6">
<path d="M2.6 0H6.6C6.75913 3.35341e-09 6.91174 0.063214 7.02426 0.175736C7.13679 0.288258 7.2 0.44087 7.2 0.6C7.2 0.75913 7.13679 0.911742 7.02426 1.02426C6.91174 1.13679 6.75913 1.2 6.6 1.2H2.6C2.2287 1.2 1.8726 1.3475 1.61005 1.61005C1.3475 1.8726 1.2 2.2287 1.2 2.6V4.9704C0.742016 5.13265 0.330238 5.4036 0 5.76V2.6C0 1.91044 0.273928 1.24912 0.761522 0.761522C1.24912 0.273928 1.91044 0 2.6 0Z" fill="white"/>
<path d="M11.0297 14.8C10.8672 15.2581 10.5959 15.6699 10.2393 16H13.4001C13.7415 16 14.0796 15.9328 14.395 15.8021C14.7105 15.6715 14.9971 15.48 15.2385 15.2385C15.48 14.9971 15.6715 14.7105 15.8021 14.395C15.9328 14.0796 16.0001 13.7415 16.0001 13.4V9.40005C16.0001 9.24092 15.9368 9.08831 15.8243 8.97579C15.7118 8.86326 15.5592 8.80005 15.4001 8.80005C15.2409 8.80005 15.0883 8.86326 14.9758 8.97579C14.8633 9.08831 14.8001 9.24092 14.8001 9.40005V13.4C14.8001 13.7714 14.6526 14.1274 14.39 14.39C14.1275 14.6525 13.7714 14.8 13.4001 14.8H11.0297Z" fill="white"/>
<path d="M15.3998 7.2C15.5589 7.2 15.7115 7.13679 15.8241 7.02426C15.9366 6.91174 15.9998 6.75913 15.9998 6.6V2.6C15.9998 2.25856 15.9326 1.92047 15.8019 1.60502C15.6712 1.28958 15.4797 1.00295 15.2383 0.761522C14.9969 0.52009 14.7102 0.328575 14.3948 0.197913C14.0793 0.0672509 13.7412 0 13.3998 0H9.3998C9.24067 3.35341e-09 9.08806 0.063214 8.97554 0.175736C8.86302 0.288258 8.7998 0.44087 8.7998 0.6C8.7998 0.75913 8.86302 0.911742 8.97554 1.02426C9.08806 1.13679 9.24067 1.2 9.3998 1.2H13.3998C14.1726 1.2 14.7998 1.8272 14.7998 2.6V6.6C14.7998 6.9312 15.0686 7.2 15.3998 7.2Z" fill="white"/>
<path d="M4 5.59998H6.4V8.39998H4V5.59998Z" fill="white"/>
<path d="M4 9.59998H6.4V12.4H4V9.59998Z" fill="white"/>
<path d="M7.59961 9.59998V12.4H10.3996V9.59998H7.59961Z" fill="white"/>
<path d="M4 13.6H6.4V16H4V13.6Z" fill="white"/>
<path d="M7.59961 13.6V16H8.19961C8.78309 16 9.34266 15.7682 9.75524 15.3556C10.1678 14.943 10.3996 14.3835 10.3996 13.8V13.6H7.59961Z" fill="white"/>
<path d="M7.59961 5.59998V8.39998H10.3996V7.79998C10.3996 7.2165 10.1678 6.65692 9.75524 6.24434C9.34266 5.83176 8.78309 5.59998 8.19961 5.59998H7.59961Z" fill="white"/>
<path d="M2.8 5.59998H2.2C1.61652 5.59998 1.05695 5.83176 0.644365 6.24434C0.231785 6.65692 0 7.2165 0 7.79998V8.39998H2.8V5.59998Z" fill="white"/>
<path d="M2.8 9.59998H0V12.4H2.8V9.59998Z" fill="white"/>
<path d="M2.8 13.6H0V13.8C0 14.3835 0.231785 14.943 0.644365 15.3556C1.05695 15.7682 1.61652 16 2.2 16H2.8V13.6Z" fill="white"/>
</g>
</svg>
