<svg width="16" height="16" viewBox="0 0 16 16" fill="none" xmlns="http://www.w3.org/2000/svg">
<g opacity="0.6">
<path d="M8.5 0.5C8.5 0.367392 8.44732 0.240215 8.35355 0.146447C8.25979 0.0526785 8.13261 0 8 0C7.86739 0 7.74021 0.0526785 7.64645 0.146447C7.55268 0.240215 7.5 0.367392 7.5 0.5V5.375C7.627 5.482 7.744 5.603 7.86 5.723L8 5.866L8.14 5.723C8.256 5.603 8.373 5.483 8.5 5.375V0.5ZM7.5 15.5V10.612C7.627 10.505 7.744 10.384 7.86 10.264L8 10.121L8.14 10.264C8.256 10.384 8.373 10.504 8.5 10.612V15.5C8.5 15.6326 8.44732 15.7598 8.35355 15.8536C8.25979 15.9473 8.13261 16 8 16C7.86739 16 7.74021 15.9473 7.64645 15.8536C7.55268 15.7598 7.5 15.6326 7.5 15.5ZM0 1.5C0 1.36739 0.0526785 1.24021 0.146447 1.14645C0.240215 1.05268 0.367392 1 0.5 1H2C2.53043 1 3.03914 1.21071 3.41421 1.58579C3.78929 1.96086 4 2.46957 4 3V5H0V1.5ZM0 14.5V11H4V13C4 13.5304 3.78929 14.0391 3.41421 14.4142C3.03914 14.7893 2.53043 15 2 15H0.5C0.367392 15 0.240215 14.9473 0.146447 14.8536C0.0526785 14.7598 0 14.6326 0 14.5ZM4 6V10H0V6H4ZM16 1.5C16 1.36739 15.9473 1.24021 15.8536 1.14645C15.7598 1.05268 15.6326 1 15.5 1H14C13.4696 1 12.9609 1.21071 12.5858 1.58579C12.2107 1.96086 12 2.46957 12 3V5H16V1.5ZM12 11V13C12 13.5304 12.2107 14.0391 12.5858 14.4142C12.9609 14.7893 13.4696 15 14 15H15.5C15.6326 15 15.7598 14.9473 15.8536 14.8536C15.9473 14.7598 16 14.6326 16 14.5V11H12ZM9.854 6.146C9.80755 6.09944 9.75238 6.06249 9.69163 6.03729C9.63089 6.01208 9.56577 5.99911 9.5 5.99911C9.43423 5.99911 9.36911 6.01208 9.30837 6.03729C9.24762 6.06249 9.19245 6.09944 9.146 6.146L8 7.293L6.854 6.146C6.76011 6.05211 6.63278 5.99937 6.5 5.99937C6.36722 5.99937 6.23989 6.05211 6.146 6.146C6.05211 6.23989 5.99937 6.36722 5.99937 6.5C5.99937 6.63278 6.05211 6.76011 6.146 6.854L7.293 8L6.146 9.146C6.09951 9.19249 6.06264 9.24768 6.03748 9.30842C6.01232 9.36916 5.99937 9.43426 5.99937 9.5C5.99937 9.56574 6.01232 9.63084 6.03748 9.69158C6.06264 9.75232 6.09951 9.80751 6.146 9.854C6.19249 9.90049 6.24768 9.93736 6.30842 9.96252C6.36916 9.98768 6.43426 10.0006 6.5 10.0006C6.56574 10.0006 6.63084 9.98768 6.69158 9.96252C6.75232 9.93736 6.80751 9.90049 6.854 9.854L8 8.707L9.146 9.854C9.19249 9.90049 9.24768 9.93736 9.30842 9.96252C9.36916 9.98768 9.43426 10.0006 9.5 10.0006C9.56574 10.0006 9.63084 9.98768 9.69158 9.96252C9.75232 9.93736 9.80751 9.90049 9.854 9.854C9.90049 9.80751 9.93736 9.75232 9.96252 9.69158C9.98768 9.63084 10.0006 9.56574 10.0006 9.5C10.0006 9.43426 9.98768 9.36916 9.96252 9.30842C9.93736 9.24768 9.90049 9.19249 9.854 9.146L8.707 8L9.854 6.854C9.90056 6.80755 9.93751 6.75238 9.96271 6.69163C9.98792 6.63089 10.0009 6.56577 10.0009 6.5C10.0009 6.43423 9.98792 6.36911 9.96271 6.30837C9.93751 6.24762 9.90056 6.19245 9.854 6.146ZM16 10V6H12V10H16Z" fill="white"/>
</g>
</svg>
