<svg width="16" height="14" viewBox="0 0 16 14" fill="none" xmlns="http://www.w3.org/2000/svg">
<g opacity="0.6">
<path d="M0.777778 0C0.571498 4.34702e-09 0.373667 0.0819441 0.227806 0.227806C0.0819441 0.373667 0 0.571498 0 0.777778C0 0.984057 0.0819441 1.18189 0.227806 1.32775C0.373667 1.47361 0.571498 1.55556 0.777778 1.55556H14.2593C14.4655 1.55556 14.6634 1.47361 14.8092 1.32775C14.9551 1.18189 15.037 0.984057 15.037 0.777778C15.037 0.571498 14.9551 0.373667 14.8092 0.227806C14.6634 0.0819441 14.4655 4.34702e-09 14.2593 0H0.777778Z" fill="white"/>
<path d="M0.777778 12.4443C0.571498 12.4443 0.373667 12.5263 0.227806 12.6721C0.0819441 12.818 0 13.0158 0 13.2221C0 13.4284 0.0819441 13.6262 0.227806 13.7721C0.373667 13.9179 0.571498 13.9999 0.777778 13.9999H14.2593C14.4655 13.9999 14.6634 13.9179 14.8092 13.7721C14.9551 13.6262 15.037 13.4284 15.037 13.2221C15.037 13.0158 14.9551 12.818 14.8092 12.6721C14.6634 12.5263 14.4655 12.4443 14.2593 12.4443H0.777778Z" fill="white"/>
<path d="M8.2959 10.111C8.2959 9.90475 8.37784 9.70692 8.5237 9.56106C8.66957 9.4152 8.8674 9.33325 9.07368 9.33325H14.2589C14.4651 9.33325 14.663 9.4152 14.8088 9.56106C14.9547 9.70692 15.0366 9.90475 15.0366 10.111C15.0366 10.3173 14.9547 10.5151 14.8088 10.661C14.663 10.8069 14.4651 10.8888 14.2589 10.8888H9.07368C8.8674 10.8888 8.66957 10.8069 8.5237 10.661C8.37784 10.5151 8.2959 10.3173 8.2959 10.111Z" fill="white"/>
<path d="M1.55556 5.96299C1.55556 5.34415 1.80139 4.75065 2.23897 4.31307C2.67656 3.87549 3.27005 3.62965 3.88889 3.62965C4.50773 3.62965 5.10122 3.87549 5.53881 4.31307C5.97639 4.75065 6.22222 5.34415 6.22222 5.96299V11.1482C6.22222 11.3545 6.30417 11.5523 6.45003 11.6981C6.59589 11.844 6.79372 11.9259 7 11.9259C7.20628 11.9259 7.40411 11.844 7.54997 11.6981C7.69583 11.5523 7.77778 11.3545 7.77778 11.1482V5.96299C7.77778 4.93159 7.36806 3.94243 6.63875 3.21313C5.90944 2.48382 4.92029 2.0741 3.88889 2.0741C2.85749 2.0741 1.86834 2.48382 1.13903 3.21313C0.409721 3.94243 0 4.93159 0 5.96299V11.1482C4.34702e-09 11.3545 0.0819441 11.5523 0.227806 11.6981C0.373667 11.844 0.571498 11.9259 0.777778 11.9259C0.984057 11.9259 1.18189 11.844 1.32775 11.6981C1.47361 11.5523 1.55556 11.3545 1.55556 11.1482V5.96299Z" fill="white"/>
</g>
</svg>
