<svg width="17" height="16" viewBox="0 0 17 16" fill="none" xmlns="http://www.w3.org/2000/svg">
<path opacity="0.6" d="M7.07965 0C10.9912 0 14.1593 1.58407 14.1593 3.53982C14.1593 5.49558 10.9912 7.07965 7.07965 7.07965C3.16814 7.07965 0 5.49558 0 3.53982C0 1.58407 3.16814 0 7.07965 0ZM0 5.30973C0 7.26549 3.16814 8.84956 7.07965 8.84956C10.9912 8.84956 14.1593 7.26549 14.1593 5.30973V8.0354L13.2743 7.9646C10.9823 7.9646 9.02655 9.41593 8.28319 11.4513L7.07965 11.5044C3.16814 11.5044 0 9.92035 0 7.9646V5.30973ZM0 9.73451C0 11.6903 3.16814 13.2743 7.07965 13.2743H7.9646C7.9646 14.2035 8.20354 15.0796 8.62832 15.8407L7.07965 15.9292C3.16814 15.9292 0 14.3451 0 12.3894V9.73451ZM12.3894 16L9.95575 13.3451L10.9823 12.3186L12.3894 13.7168L15.5664 10.5487L16.5929 11.7965L12.3894 16Z" fill="white"/>
</svg>
