<svg width="16" height="16" viewBox="0 0 16 16" fill="none" xmlns="http://www.w3.org/2000/svg">
<path opacity="0.6" d="M0 3.36842C0 1.50737 3.01474 0 6.73684 0C10.4589 0 13.4737 1.50737 13.4737 3.36842C13.4737 5.22947 10.4589 6.73684 6.73684 6.73684C3.01474 6.73684 0 5.22947 0 3.36842ZM13.2379 8.46316C13.3895 8.17684 13.4737 7.88211 13.4737 7.57895V5.05263C13.4737 6.91368 10.4589 8.42105 6.73684 8.42105C3.01474 8.42105 0 6.91368 0 5.05263V7.57895C0 9.44 3.01474 10.9474 6.73684 10.9474C7.28421 10.9474 7.81474 10.9137 8.32 10.8547C8.76859 10.1124 9.40111 9.49842 10.1564 9.07209C10.9117 8.64575 11.7643 8.42151 12.6316 8.42105C12.8337 8.42105 13.0526 8.42105 13.2379 8.46316ZM7.66316 12.5979C7.36 12.6316 7.04842 12.6316 6.73684 12.6316C3.01474 12.6316 0 11.1242 0 9.26316V11.7895C0 13.6505 3.01474 15.1579 6.73684 15.1579C7.12421 15.1579 7.49474 15.1579 7.85684 15.1074C7.67402 14.582 7.5801 14.0299 7.57895 13.4737C7.57895 13.1705 7.61263 12.8842 7.66316 12.5979ZM11.7895 12.6316V10.9474L9.26316 13.4737L11.7895 16V14.3158H15.1579V12.6316H11.7895Z" fill="white"/>
</svg>
