<svg width="15" height="16" viewBox="0 0 15 16" fill="none" xmlns="http://www.w3.org/2000/svg">
<path opacity="0.6" d="M12 8C10.264 8 8.744 8.928 7.904 10.312C7.424 10.368 6.92 10.4 6.4 10.4C2.864 10.4 0 8.968 0 7.2V4.8C0 6.568 2.864 8 6.4 8C9.936 8 12.8 6.568 12.8 4.8V7.2C12.8 7.488 12.72 7.768 12.576 8.04C12.4 8 12.192 8 12 8ZM6.4 6.4C9.936 6.4 12.8 4.968 12.8 3.2C12.8 1.432 9.936 0 6.4 0C2.864 0 0 1.432 0 3.2C0 4.968 2.864 6.4 6.4 6.4ZM7.28 11.968C6.992 12 6.696 12 6.4 12C2.864 12 0 10.568 0 8.8V11.2C0 12.968 2.864 14.4 6.4 14.4C6.768 14.4 7.12 14.4 7.464 14.352C7.29032 13.8529 7.2011 13.3284 7.2 12.8C7.2 12.512 7.232 12.24 7.28 11.968ZM12.8 13.6V10.4H11.2V13.6H9.6L12 16L14.4 13.6H12.8Z" fill="white"/>
</svg>
