<svg width="17" height="16" viewBox="0 0 17 16" fill="none" xmlns="http://www.w3.org/2000/svg">
<path opacity="0.6" d="M6.91892 0C10.7416 0 13.8378 1.54811 13.8378 3.45946C13.8378 5.37081 10.7416 6.91892 6.91892 6.91892C3.09622 6.91892 0 5.37081 0 3.45946C0 1.54811 3.09622 0 6.91892 0ZM0 5.18919C0 7.10054 3.09622 8.64865 6.91892 8.64865C7.87892 8.64865 8.80432 8.55351 9.63459 8.37189C8.81297 9.11567 8.21621 10.093 7.93946 11.2086L6.91892 11.2432C3.09622 11.2432 0 9.69513 0 7.78378V5.18919ZM13.8378 5.18919V6.91892H13.4054L12.8865 6.94486C13.4919 6.42594 13.8378 5.82919 13.8378 5.18919ZM0 9.51351C0 11.4249 3.09622 12.973 6.91892 12.973L7.78378 12.947C7.86162 13.8638 8.14702 14.7027 8.6054 15.4638L6.91892 15.5676C3.09622 15.5676 0 14.0195 0 12.1081V9.51351ZM12.973 9.08108C13.933 9.08108 14.7978 9.47027 15.4205 10.093L16.4324 9.08108V12.5405H12.973L14.5038 11.0097C14.1923 10.6981 13.793 10.4891 13.3594 10.4107C12.9259 10.3323 12.4787 10.3882 12.0778 10.5709C11.6769 10.7537 11.3413 11.0546 11.1162 11.4333C10.891 11.812 10.7869 12.2505 10.8178 12.69C10.8487 13.1296 11.0132 13.5491 11.2891 13.8926C11.5651 14.2361 11.9394 14.487 12.362 14.6119C12.7845 14.7367 13.2351 14.7295 13.6535 14.5912C14.0718 14.4528 14.4379 14.19 14.7027 13.8378H16.1816C15.924 14.4775 15.4806 15.0254 14.9087 15.4108C14.3368 15.7961 13.6626 16.0014 12.973 16C11.0616 16 9.51351 14.4519 9.51351 12.5405C9.51351 10.6292 11.0616 9.08108 12.973 9.08108Z" fill="white"/>
</svg>
