<svg width="15" height="16" viewBox="0 0 15 16" fill="none" xmlns="http://www.w3.org/2000/svg">
<path opacity="0.6" d="M10.9268 9.75609C11.7932 9.75609 12.5737 10.1073 13.1356 10.6693L14.0488 9.75609V12.878H10.9268L12.3083 11.4966C12.0272 11.2154 11.6669 11.0268 11.2756 10.956C10.8843 10.8852 10.4808 10.9357 10.119 11.1006C9.75716 11.2655 9.45438 11.5371 9.25117 11.8788C9.04796 12.2206 8.95401 12.6163 8.98191 13.013C9.00981 13.4096 9.15822 13.7882 9.40727 14.0982C9.65633 14.4082 9.99413 14.6346 10.3755 14.7473C10.7568 14.86 11.1634 14.8534 11.5409 14.7286C11.9185 14.6038 12.2488 14.3666 12.4878 14.0488H13.8224C13.5899 14.6261 13.1898 15.1205 12.6737 15.4682C12.1576 15.816 11.5492 16.0012 10.9268 16C9.20195 16 7.80488 14.6029 7.80488 12.878C7.80488 11.1532 9.20195 9.75609 10.9268 9.75609ZM7.02439 5.46341H11.3171L7.02439 1.17073V5.46341ZM1.56098 0H7.80488L12.4878 4.68293V7.93756C12.0976 7.8517 11.7073 7.80488 11.3171 7.80488C9.97158 7.80488 8.6812 8.33937 7.7298 9.29077C6.77839 10.2422 6.2439 11.5326 6.2439 12.878C6.2439 13.8849 6.53268 14.8293 7.02439 15.6098H1.56098C0.686829 15.6098 0 14.9073 0 14.0488V1.56098C0 0.694634 0.694634 0 1.56098 0Z" fill="white"/>
</svg>
