<svg width="20" height="20" viewBox="0 0 20 20" fill="none" xmlns="http://www.w3.org/2000/svg">
<g opacity="0.6">
<path d="M17.2559 5.00003H2.81141C2.66407 5.00003 2.52276 4.9415 2.41858 4.83731C2.31439 4.73312 2.25586 4.59181 2.25586 4.44447C2.25586 4.29713 2.31439 4.15582 2.41858 4.05163C2.52276 3.94745 2.66407 3.88892 2.81141 3.88892H17.2559C17.4032 3.88892 17.5445 3.94745 17.6487 4.05163C17.7529 4.15582 17.8114 4.29713 17.8114 4.44447C17.8114 4.59181 17.7529 4.73312 17.6487 4.83731C17.5445 4.9415 17.4032 5.00003 17.2559 5.00003Z" fill="white"/>
<path d="M17.2559 7.77774H7.81141C7.66407 7.77774 7.52276 7.71921 7.41858 7.61502C7.31439 7.51083 7.25586 7.36952 7.25586 7.22218C7.25586 7.07484 7.31439 6.93353 7.41858 6.82934C7.52276 6.72516 7.66407 6.66663 7.81141 6.66663H17.2559C17.4032 6.66663 17.5445 6.72516 17.6487 6.82934C17.7529 6.93353 17.8114 7.07484 17.8114 7.22218C17.8114 7.36952 17.7529 7.51083 17.6487 7.61502C17.5445 7.71921 17.4032 7.77774 17.2559 7.77774Z" fill="white"/>
<path d="M17.2559 10.5556H7.81141C7.66407 10.5556 7.52276 10.497 7.41858 10.3929C7.31439 10.2887 7.25586 10.1474 7.25586 10C7.25586 9.85267 7.31439 9.71136 7.41858 9.60718C7.52276 9.50299 7.66407 9.44446 7.81141 9.44446H17.2559C17.4032 9.44446 17.5445 9.50299 17.6487 9.60718C17.7529 9.71136 17.8114 9.85267 17.8114 10C17.8114 10.1474 17.7529 10.2887 17.6487 10.3929C17.5445 10.497 17.4032 10.5556 17.2559 10.5556Z" fill="white"/>
<path d="M17.2559 13.3333H7.81141C7.66407 13.3333 7.52276 13.2747 7.41858 13.1706C7.31439 13.0664 7.25586 12.9251 7.25586 12.7777C7.25586 12.6304 7.31439 12.4891 7.41858 12.3849C7.52276 12.2807 7.66407 12.2222 7.81141 12.2222H17.2559C17.4032 12.2222 17.5445 12.2807 17.6487 12.3849C17.7529 12.4891 17.8114 12.6304 17.8114 12.7777C17.8114 12.9251 17.7529 13.0664 17.6487 13.1706C17.5445 13.2747 17.4032 13.3333 17.2559 13.3333Z" fill="white"/>
<path d="M17.2559 16.1111H2.81141C2.66407 16.1111 2.52276 16.0526 2.41858 15.9484C2.31439 15.8442 2.25586 15.7029 2.25586 15.5556C2.25586 15.4082 2.31439 15.2669 2.41858 15.1627C2.52276 15.0585 2.66407 15 2.81141 15H17.2559C17.4032 15 17.5445 15.0585 17.6487 15.1627C17.7529 15.2669 17.8114 15.4082 17.8114 15.5556C17.8114 15.7029 17.7529 15.8442 17.6487 15.9484C17.5445 16.0526 17.4032 16.1111 17.2559 16.1111Z" fill="white"/>
<path d="M5.28564 7.48289C5.39551 7.48335 5.50278 7.51638 5.59389 7.5778C5.68499 7.63923 5.75583 7.72628 5.79746 7.82797C5.83908 7.92965 5.84962 8.0414 5.82774 8.14907C5.80586 8.25675 5.75254 8.35551 5.67453 8.43289L4.10786 10.0051L5.67453 11.5773C5.778 11.6814 5.83608 11.8222 5.83608 11.969C5.83608 12.1158 5.778 12.2566 5.67453 12.3607C5.57044 12.4641 5.42963 12.5222 5.28286 12.5222C5.13609 12.5222 4.99529 12.4641 4.8912 12.3607L2.53564 10.0051L4.8912 7.64955C4.94265 7.59706 5.00401 7.5553 5.07172 7.52669C5.13942 7.49808 5.21214 7.48319 5.28564 7.48289Z" fill="white"/>
</g>
</svg>
