<svg width="14" height="16" viewBox="0 0 14 16" fill="none" xmlns="http://www.w3.org/2000/svg">
<g opacity="0.6">
<path d="M13 16H1.01562C0.734375 16 0.497396 15.9036 0.304688 15.7109C0.111979 15.5182 0.015625 15.2812 0.015625 15V1.01562C0.015625 0.744792 0.114583 0.510417 0.3125 0.3125C0.510417 0.114583 0.744792 0.015625 1.01562 0.015625H8.01562V5.51562C8.01562 5.65104 8.0625 5.76823 8.15625 5.86719C8.25 5.96615 8.36979 6.01562 8.51562 6.01562H14V14.9844C14 15.2656 13.9036 15.5026 13.7109 15.6953C13.5182 15.888 13.2812 15.9844 13 15.9844V16ZM9.01562 10H7.01562V8C7.01562 7.72917 6.91667 7.4974 6.71875 7.30469C6.52083 7.11198 6.28385 7.01562 6.00781 7.01562C5.73177 7.01562 5.4974 7.11198 5.30469 7.30469C5.11198 7.4974 5.01562 7.72917 5.01562 8V10H3.01562C2.73438 10 2.4974 10.099 2.30469 10.2969C2.11198 10.4948 2.01562 10.7292 2.01562 11C2.01562 11.2708 2.11198 11.5026 2.30469 11.6953C2.4974 11.888 2.73438 11.9844 3.01562 11.9844H5.01562V13.9844C5.01562 14.2656 5.11198 14.5026 5.30469 14.6953C5.4974 14.888 5.73177 14.9844 6.00781 14.9844C6.28385 14.9844 6.52083 14.888 6.71875 14.6953C6.91667 14.5026 7.01562 14.2656 7.01562 13.9844V11.9844H9.01562C9.28646 11.9844 9.52083 11.888 9.71875 11.6953C9.91667 11.5026 10.0156 11.2708 10.0156 11C10.0156 10.7292 9.91667 10.4948 9.71875 10.2969C9.52083 10.099 9.28646 10 9.01562 10ZM9.01562 0C9.23438 0 9.46354 0.0989583 9.70312 0.296875L13.7031 4.3125C13.901 4.51042 14 4.75 14 5.03125H9.01562V0Z" fill="white"/>
</g>
</svg>
