<svg width="23" height="14" viewBox="0 0 23 14" fill="none" xmlns="http://www.w3.org/2000/svg">
<g opacity="0.6">
<path d="M19.7092 5.6131H17.4727C16.634 1.83899 12.9997 -0.67708 9.22559 0.16161C6.42996 0.720737 4.19345 2.81746 3.63432 5.6131H2.65585C1.25804 5.6131 0 6.87113 0 8.26895V10.0861C0 11.0646 0.83869 11.9033 1.81716 11.9033H2.23651C2.23651 10.0861 3.77411 8.54851 5.59127 8.54851C7.40843 8.54851 8.94603 10.0861 8.94603 11.9033H13.419C13.419 10.0861 14.9566 8.54851 16.7738 8.54851C18.591 8.54851 20.1286 10.0861 20.1286 11.9033H20.5479C21.5264 11.9033 22.3651 11.0646 22.3651 10.0861V8.40873C22.3651 6.87113 21.107 5.6131 19.7092 5.6131ZM5.87083 5.6131C6.56974 2.95724 9.36537 1.55943 11.8814 2.25834C13.419 2.67768 14.6771 3.93572 15.2362 5.6131H5.87083ZM5.59127 9.80655C4.47301 9.80655 3.49454 10.785 3.49454 11.9033C3.49454 13.0215 4.47301 14 5.59127 14C6.70952 14 7.68799 13.0215 7.68799 11.9033C7.68799 10.785 6.70952 9.80655 5.59127 9.80655Z" fill="white"/>
<path d="M2.65601 5.60435H4.89252C5.73121 1.83612 9.36554 -0.676024 13.1396 0.161358C15.9353 0.719613 18.1718 2.81307 18.7309 5.60435H19.7094C21.1072 5.60435 22.3652 6.86042 22.3652 8.25606V10.0704C22.3652 11.0473 21.5265 11.8847 20.5481 11.8847H20.1287C20.1287 10.0704 18.5911 8.53518 16.774 8.53518C14.9568 8.53518 13.4192 10.0704 13.4192 11.8847H8.94619C8.94619 10.0704 7.40859 8.53518 5.59143 8.53518C3.77427 8.53518 2.23667 10.0704 2.23667 11.8847H1.81732C0.838852 11.8847 0.000162125 11.0473 0.000162125 10.0704V8.39562C0.000162125 6.86042 1.2582 5.60435 2.65601 5.60435ZM16.4944 5.60435C15.7955 2.95263 12.9999 1.557 10.4838 2.25481C8.94619 2.67351 7.68816 3.92958 7.12903 5.60435H16.4944ZM16.774 9.79126C17.8922 9.79126 18.8707 10.7682 18.8707 11.8847C18.8707 13.0012 17.8922 13.9782 16.774 13.9782C15.6557 13.9782 14.6772 13.0012 14.6772 11.8847C14.6772 10.7682 15.6557 9.79126 16.774 9.79126Z" fill="white"/>
</g>
</svg>
