<svg width="16" height="16" viewBox="0 0 16 16" fill="none" xmlns="http://www.w3.org/2000/svg">
<path opacity="0.6" d="M1.18519 10.0741V11.2593H3.90282L0 15.1621L0.837926 16L4.74074 12.0972V14.8148H5.92593V10.0741H1.18519Z" fill="white"/>
<path opacity="0.6" d="M8.2959 8.88892H10.6663V10.0741H8.2959V8.88892Z" fill="white"/>
<path opacity="0.6" d="M10.667 6.51855H13.0374V7.70374H10.667V6.51855Z" fill="white"/>
<path opacity="0.6" d="M3.55566 6.51855H5.92603V7.70374H3.55566V6.51855Z" fill="white"/>
<path opacity="0.6" d="M14.815 0H1.77796C1.46377 0.000470222 1.16259 0.125489 0.940425 0.347652C0.718262 0.569816 0.593244 0.870999 0.592773 1.18519V7.7037H1.77796V4.74074H14.815V14.2222H8.29648V15.4074H14.815C15.1292 15.4069 15.4304 15.2819 15.6525 15.0598C15.8747 14.8376 15.9997 14.5364 16.0002 14.2222V1.18519C15.9997 0.870999 15.8747 0.569816 15.6525 0.347652C15.4304 0.125489 15.1292 0.000470222 14.815 0ZM14.815 3.55556H1.77796V1.18519H14.815V3.55556Z" fill="white"/>
</svg>
