<svg width="20" height="16" viewBox="0 0 20 16" fill="none" xmlns="http://www.w3.org/2000/svg">
<g opacity="0.6">
<path d="M10.3785 2.18697C11.1771 1.3457 12.5543 1.10516 14.1783 1.26878C15.685 1.42018 17.2344 1.90736 18.315 2.35913V14.4751C17.1942 14.0478 15.7424 13.6302 14.3016 13.4861C12.9658 13.3506 11.5202 13.4385 10.3785 14.0869V2.18697ZM9.76802 1.08319C8.56533 0.0489974 6.82174 -0.104849 5.23444 0.0538814C3.38584 0.240695 1.52015 0.874395 0.357754 1.40309C0.251098 1.4516 0.160654 1.52977 0.0972174 1.62828C0.0337811 1.72679 3.24438e-05 1.84148 0 1.95864L0 15.3897C2.82808e-05 15.4918 0.0256864 15.5923 0.0746241 15.682C0.123562 15.7716 0.194215 15.8476 0.280111 15.9029C0.366007 15.9582 0.464401 15.991 0.56628 15.9984C0.668159 16.0058 0.770266 15.9875 0.863249 15.9452C1.94017 15.4568 3.67522 14.8695 5.35654 14.6998C7.07693 14.5264 8.51893 14.806 9.29183 15.7706C9.34903 15.8419 9.42152 15.8995 9.50394 15.939C9.58636 15.9786 9.6766 15.9991 9.76802 15.9991C9.85943 15.9991 9.94968 15.9786 10.0321 15.939C10.1145 15.8995 10.187 15.8419 10.2442 15.7706C11.0171 14.806 12.4591 14.5264 14.1783 14.6998C15.8608 14.8695 17.5971 15.4568 18.6728 15.9452C18.7658 15.9875 18.8679 16.0058 18.9698 15.9984C19.0716 15.991 19.17 15.9582 19.2559 15.9029C19.3418 15.8476 19.4125 15.7716 19.4614 15.682C19.5103 15.5923 19.536 15.4918 19.536 15.3897V1.95864C19.536 1.84148 19.5023 1.72679 19.4388 1.62828C19.3754 1.52977 19.2849 1.4516 19.1783 1.40309C18.0159 0.874395 16.1502 0.240695 14.3016 0.0538814C12.7143 -0.10607 10.9707 0.0489974 9.76802 1.08319Z" fill="white"/>
</g>
</svg>
