<svg width="17" height="16" viewBox="0 0 17 16" fill="none" xmlns="http://www.w3.org/2000/svg">
<g opacity="0.6">
<path fill-rule="evenodd" clip-rule="evenodd" d="M6.5457 0.727893C6.54583 0.576226 6.49855 0.428311 6.41045 0.304849C6.32236 0.181386 6.19788 0.0885541 6.05441 0.0393442C5.91095 -0.00986577 5.75569 -0.0129912 5.61037 0.0304053C5.46504 0.0738018 5.33692 0.161549 5.24393 0.281366L0.153226 6.82656C0.0539174 6.95422 0 7.11134 0 7.27308C0 7.43482 0.0539174 7.59195 0.153226 7.71961L5.24393 14.2648C5.33692 14.3846 5.46504 14.4724 5.61037 14.5158C5.75569 14.5592 5.91095 14.556 6.05441 14.5068C6.19788 14.4576 6.32236 14.3648 6.41045 14.2413C6.49855 14.1179 6.54583 13.9699 6.5457 13.8183V10.9166C10.4575 10.998 12.3367 11.7405 13.2807 12.5478C14.1781 13.315 14.3425 14.2175 14.5134 15.1629L14.5577 15.4066C14.5904 15.5809 14.6856 15.7373 14.8255 15.8463C14.9653 15.9554 15.1402 16.0095 15.3173 15.9986C15.4943 15.9877 15.6612 15.9125 15.7867 15.7871C15.9121 15.6618 15.9874 15.4949 15.9984 15.3179C16.1228 13.3194 15.9359 10.4235 14.5243 8.00105C13.1542 5.64988 10.6866 3.84195 6.5457 3.65287V0.727893Z" fill="white"/>
</g>
</svg>
